<?xml version="1.0" standalone="no"?>
<!DOCTYPE svg PUBLIC "-//W3C//DTD SVG 20010904//EN"
 "http://www.w3.org/TR/2001/REC-SVG-20010904/DTD/svg10.dtd">
<svg version="1.0" xmlns="http://www.w3.org/2000/svg"
 width="700.000000pt" height="700.000000pt" viewBox="0 0 700.000000 700.000000"
 preserveAspectRatio="xMidYMid meet">
<metadata>
Created by potrace 1.11, written by Peter Selinger 2001-2013
</metadata>
<g transform="translate(0.000000,700.000000) scale(0.100000,-0.100000)"
fill="#000000" stroke="none">
<path d="M4025 6699 c-22 -5 -58 -18 -81 -30 -27 -13 -597 -577 -1681 -1662
-1466 -1468 -1642 -1647 -1659 -1692 -18 -47 -19 -86 -19 -685 0 -610 1 -637
20 -689 26 -71 96 -142 167 -170 52 -20 71 -20 698 -18 l645 2 50 24 c73 35
3310 3272 3346 3346 34 70 34 179 1 250 -33 70 -1234 1271 -1302 1302 -56 25
-132 35 -185 22z m435 -1073 c203 -203 370 -372 370 -376 0 -3 -654 -661
-1454 -1461 l-1455 -1454 -373 -1 c-205 0 -375 3 -378 7 -3 4 -5 174 -4 377
l1 370 1457 1457 c802 801 1459 1455 1461 1453 3 -1 171 -169 375 -372z"/>
<path d="M818 867 c-23 -5 -47 -13 -52 -18 -6 -5 -16 -9 -23 -9 -13 0 -50 -28
-85 -65 -38 -39 -69 -119 -70 -181 -3 -151 87 -263 236 -294 35 -7 882 -9
2711 -8 l2660 3 48 23 c217 105 229 397 22 517 -22 13 -56 27 -75 31 -47 11
-5316 11 -5372 1z"/>
</g>
</svg>
